<svg width="163" height="163" fill="none" xmlns="http://www.w3.org/2000/svg">
  <circle cx="81.5" cy="81.5" r="81.5" fill="#F4F7FB"/>
  <g clip-path="url(#a)">
    <path d="M37 50.6233h89v76.1727c0 3.405-2.984 6.204-6.713 6.204H43.7135C40.0304 133 37 130.248 37 126.796V50.6233Z" fill="#F6EBE1"/>
    <path d="M126 37.6557v12.9676H37V37.6557c0-2.5655 2.2378-4.6646 5.0351-4.6646h78.9299c2.797 0 5.035 2.0991 5.035 4.6646Z" fill="#0382FD"/>
    <path d="M111.174 44.8858c2.318 0 4.196-1.7334 4.196-3.8716s-1.878-3.8716-4.196-3.8716c-2.317 0-4.195 1.7334-4.195 3.8716s1.878 3.8716 4.195 3.8716Z" fill="#085FB4"/>
    <path d="M111.174 42.4602c1.306 0 2.425-1.0262 2.425-2.239V30.239c0-1.2128-1.073-2.239-2.425-2.239-1.305 0-2.424 1.0262-2.424 2.239v9.9822c0 1.2595 1.072 2.239 2.424 2.239Z" fill="#04DBCB"/>
    <path d="M81.6166 44.8858c2.3173 0 4.1959-1.7334 4.1959-3.8716s-1.8786-3.8716-4.1959-3.8716c-2.3174 0-4.196 1.7334-4.196 3.8716s1.8786 3.8716 4.196 3.8716Z" fill="#085FB4"/>
    <path d="M81.6166 42.4602c1.3053 0 2.4243-1.0262 2.4243-2.239V30.239c0-1.2128-1.0723-2.239-2.4243-2.239-1.3054 0-2.4244 1.0262-2.4244 2.239v9.9822c0 1.2595 1.0723 2.239 2.4244 2.239Z" fill="#04DBCB"/>
    <path d="M52.0587 44.8858c2.3173 0 4.1959-1.7334 4.1959-3.8716s-1.8786-3.8716-4.1959-3.8716c-2.3174 0-4.1959 1.7334-4.1959 3.8716s1.8785 3.8716 4.1959 3.8716Z" fill="#085FB4"/>
    <path d="M52.0587 42.4602c1.3054 0 2.4243-1.0262 2.4243-2.239V30.239c0-1.2128-1.0723-2.239-2.4243-2.239-1.3054 0-2.4243 1.0262-2.4243 2.239v9.9822c0 1.2595 1.0723 2.239 2.4243 2.239Z" fill="#04DBCB"/>
    <path d="M63.0147 118.913c3.0304 2.052 6.4803 3.638 10.2566 4.571 13.2405 3.405 26.6208-1.679 34.4997-11.801 2.704-3.499 4.755-7.557 5.921-12.1282 4.569-17.7721-6.154-35.8707-23.9167-40.442-17.7627-4.5713-35.8518 6.1572-40.4207 23.9294-3.5898 13.9937 2.2845 28.2208 13.6601 35.8708Z" fill="#fff"/>
    <path d="M60.8235 117.653c3.0303 2.333 6.4803 4.199 10.3033 5.458 13.4735 4.385 27.693.047 36.5042-9.889-5.548-3.452-11.3287-4.245-17.5294-5.224 0 0-5.1283.326-5.1749.326-.2798.093-2.6108.373-5.9209 0-.1865 0-8.9047.28-18.229 9.376l.0467-.047Z" fill="#0382FD"/>
    <path d="M70.4274 90.319s-1.0256-1.3528-1.7249-.7464c-1.7716 1.586.2331 3.3585 1.5385 3.6851l.2331-2.9854-.0467.0467Z" fill="#FBB792"/>
    <path d="M69.6349 85.0946v-.4665c-.4662-6.6237 4.802-12.3611 11.5621-12.3611 5.6411 0 10.5364 4.1515 11.4222 9.7023.3263 2.0524.0932 4.0582-.5595 5.8774-.8858 2.7988-1.6783 5.1311-2.5642 7.1368-1.4452 3.3119-1.7249 6.9505-.8858 10.4485l.6527 2.752c-6.8533 4.245-10.3033.98-10.3033.98l-.4662-5.085c-.0466-.653-.606-1.166-1.3054-1.166-8.858 0-7.2729-13.8535-7.506-17.8184h-.0466Z" fill="#FBB792"/>
    <path d="M93.3185 75.1124c-.2797-.6531-.6061-1.2595-1.0723-1.8192-1.1189-1.3061-2.8905-1.9125-4.6155-2.0991-1.725-.1866-3.45-.0466-5.175-.2798-1.7249-.1866-3.4966-.7464-5.2215-.4665-.373.0466-.746.1866-1.0723.3732-.3264.2332-.5595.5597-.8392.8396-1.1189 1.1661-2.9372 1.3527-4.5689 1.446-.9324.0467-1.8648.0933-2.8439.1866-.7926.0466-1.6784.1399-2.2844.6064-.6994.5597-.9325 1.5393-1.1656 2.4256-.2331.8863-.606 1.8192-1.4452 2.1923-.2798.14-.6527.1866-.7926.4665-.0932.1399-.0932.2799-.0932.4198 0 1.3061 1.1655 2.4722 2.4709 2.4722.3263 0 .6527-.0466.979 0 1.1189.2333 1.3521 1.8192 2.2379 2.5189.5594.4198 1.352.4665 2.0513.3265.6993-.1399 1.352-.4664 2.0047-.6996.7926-.2799 1.6318-.4665 2.4709-.5131.6061-.0467 1.2122 0 1.7716.1865.2798.14.5595.3266.8392.4665.9791.4665 2.1912.1399 3.1703-.3732.979-.5131 1.8182-1.2128 2.8439-1.6792 1.0256-.4198 2.2844-.5598 3.1236.0933.5128.3731.7926.9795 1.2588 1.3993 1.1655 1.2128 2.9837 1.3061 4.6621 1.3528.3263 0 .6993 0 .979-.1866.1865-.1399.3264-.3732.4663-.5598 1.4918-2.7521.979-6.5304-.2331-9.1892l.0932.0933Z" fill="#25224A"/>
    <path d="m93.7381 84.0218-2.5642 7.8365-2.0979-.2799-1.9581-9.9822 6.6202 2.4256Z" fill="#25224A"/>
    <path d="M88.703 91.3451c.1865-.3731.4662-.6996.8392-.8862.7925-.3732 2.1445-.8397 3.1702.0933 1.4919 1.3061-1.0723 5.271-4.056 3.5917 0 0-.8392-.7463 0-2.7988h.0466Z" fill="#FBB792"/>
    <path d="M73.4112 89.1061c.0466.5131-.3263.933-.7926.9796-.5128.0466-.9324-.3265-.979-.793-.0466-.5131.3264-.9329.7926-.9796.5128-.0466.9324.3266.979.793ZM83.8078 88.733c.0466.5131-.3264.9329-.7926.9795-.4662.0467-.9324-.3265-.9791-.793-.0466-.4664.3264-.9329.7926-.9795.4662-.0467.9324.3265.9791.793Z" fill="#301325"/>
    <path d="M76.7679 95.6366c.1399 0 .2331.0467.373.0467l1.3987.0933s.0466 0 .0466-.0467c0-.0466 0-.0466-.0466-.0466l-1.3987-.0933c-.6527 0-1.1655-.5131-1.2121-1.1195 0-.1399 0-.3265.0466-.4665l1.5851-4.8978v-.0933c0-.0466-.0466 0-.0932 0l-1.5852 4.8978c-.0466.1866-.0932.3266-.0466.5131 0 .5598.4196.9796.9324 1.1662v.0466Z" fill="#FF9561"/>
    <path d="M78.5862 96.3363h-.1399l-1.3986-.0933c-.1865 0-.373 0-.5129-.0933-.7459-.2332-1.2587-.8863-1.3054-1.6326 0-.2332 0-.5131.0933-.7463l1.5851-4.8979c.0466-.1399.1399-.2798.3264-.3731.1398-.0933.3263-.0933.4662 0 .1398.0466.2797.1399.3729.3265.0933.1399.0933.3265 0 .4665l-1.5851 4.8978v.2799c0 .2798.3264.5597.6527.5597l1.3986.0933c.373 0 .6061.3265.6061.653 0 .1866-.0932.3266-.1865.4199-.0932.0932-.1864.1399-.3263.1399h-.0466ZM80.3578 98.8551c-1.2122 1.2129-3.1703 1.2129-4.3824 0-.1865-.1866-.1865-.4665 0-.6064.1865-.1866.4662-.1866.6061 0 .8858.8863 2.2844.8396 3.1702 0 .1865-.1866.4662-.1866.6061 0 .1865.1866.1865.4665 0 .6064ZM92.153 91.1119c.2797 1.1662-.4662 2.3323-1.6318 2.6122-1.1655.2799-.3263-.0466-.373-.2332-.0466-.1866.0467-.3265.2332-.3732.8391-.1866 1.352-1.0262 1.1655-1.8658 0-.14.0466-.3265.2331-.3732.1865-.0466.3263.0467.373.2332Z" fill="#FF9561"/>
    <path d="M75.3693 87.3335c.1399 0 .2797-.1399.4196-.2799.3263-.3731.3263-.9329-.0466-1.2594-1.1189-1.0262-3.9628-2.1924-6.7135.4198-.373.3265-.373.9329 0 1.2595.3264.3731.9324.3731 1.2588 0 2.2844-2.1924 4.1959-.4665 4.2891-.4199.2331.2333.5595.2799.8858.1866l-.0932.0933ZM80.4976 87.3335c-.1398 0-.2797-.1399-.4195-.2799-.3264-.3731-.3264-.9329.0466-1.2594 1.1189-1.0262 3.9628-2.1924 6.7134.4198.373.3265.373.9329 0 1.2595-.3263.3731-.9324.3731-1.2587 0-2.2845-2.1924-4.196-.4665-4.2892-.4199-.2331.2333-.5594.2799-.8858.1866l.0932.0933Z" fill="#25224A"/>
    <path d="M86.8848 100.161s-6.6203 3.079-9.4175 2.846c0 0 .8391.093.979 1.352 0 0 3.4966 1.027 8.3918-4.151l.0467-.047Z" fill="#FF9561"/>
  </g>
  <defs>
    <clipPath id="a">
      <path fill="#fff" transform="translate(37 28)" d="M0 0h89v105H0z"/>
    </clipPath>
  </defs>
</svg>
