<svg width="163" height="168" fill="none" xmlns="http://www.w3.org/2000/svg">
  <circle cx="81.5" cy="81.5" r="81.5" fill="#F4F7FB"/>
  <path d="M70.248 58.1718c-3.4083-1.3523-11.5075-1.3157-15.8687 3.9105-8.9421-.1827-8.5756 14.0706-3.2616 19.6623-4.3612 3.3258-5.6439 11.4758 1.4292 13.1935 4.3978 1.0599 2.0523.8406 18.6906-2.2659 6.5966-1.2061 3.8847-10.0505.2932-11.7682.513-.8771.8062-5.4089 2.0522-6.1764 3.5183-2.1198 4.5078-13.4859-3.2983-16.5924l-.0366.0366Z" fill="#25224A"/>
  <path d="m96.5613 110.142-16.5283-.11 2.089 24.158c-.4032.621-21.1093 1.644-35.9518-.293 0 0 2.6753-42.2117 11.5441-42.2117 4.0313 2.0101 8.2458 1.7177 11.6908 0 8.0626-.1096 17.811 2.1928 29.5017 3.6547.9895.1096-2.3088 14.802-2.3088 14.802h-.0367Z" fill="#0382FD"/>
  <path d="M128.812 93.5127c.476-.402 1.612.402.696 1.9004-.843 1.3888-1.099 2.4852-1.173 2.5949-.513.6578-3.628 1.608-3.628 1.608.037-.0365.44-2.4852 1.613-3.7643 1.062-1.1695 1.246-1.3157 2.455-2.3756l.037.0366Z" fill="#FBB792"/>
  <path d="m62.6618 86.7881 6.67-1.3157-.8063 4.7877-5.8637-3.1796" fill="#FF9561"/>
  <path d="M130 147c-.037-.146-.968-2.394-1.042-2.54-2.235-7.419-4.654-13.157-4.654-13.157-10.738-1.426-18.91-1.572-29.7583-.147 0 0-3.958 5.556-6.7066 13.304-1.2094 3.435-2.1989 7.309-2.5287 11.329-.11 1.462 0 3.911-.11 6.725C104 162 116.278 156.148 130 147Z" fill="#125093"/>
  <path d="M120.602 63.6539s8.576-1.7543 7.147 9.2098c-.44 3.5451 4.837 8.9175-1.429 13.157-3.592 2.4486-.147 6.9805-10.922 9.5753-4.177.9868-10.041-1.3888-10.847-2.0466-3.042-2.4121-14.3298 5.4089-14.2199-5.007.0367-4.1298-5.6438-5.2627-.8429-13.1569 2.7486-4.5318-1.7591-9.5388 5.4972-11.9144 2.4188-.804 4.1413-8.5154 12.4606-5.2993 4.288 1.6446 8.942-3.6912 13.156 5.4821Z" fill="#25224A"/>
  <path d="M119.723 78.6748c-.257 2.0832-1.356 3.2527-2.859 3.07-.073.6578-.329 1.937-1.392 3.143l.659 9.2464c-6.743 5.8475-12.13-1.7177-12.13-1.7177l.916-2.8507 5.827-2.4852c-3.005.9503-5.351.4386-6.853-.3289-2.382-1.206-3.665-3.2892-4.4345-5.4821 0-.073-.0733-.1827-.0733-.2558 0-.0731-.0366-.1827-.0733-.2558-.0366-.1462-.0733-.2924-.1099-.402-.0733-.2559-.1466-.5117-.1833-.7675-.1099-.5117-.1832-.9868-.2565-1.4984 0-.1097 0-.2559-.0367-.3655v-.6213c0-.2193 0-.4386-.0366-.6579-.11-2.4121 0-3.2161.2565-4.276.733-3.143 2.5286-5.1166 5.9736-3.7643 4.984 1.937 6.377 1.2791 8.722 3.3989 1.21 1.0964 1.393 1.6811 1.613 4.276.073.6944.33.9867.66.9867.219 0 .476-.1462.769-.402.183-.1462.367-.3289.586-.5116 1.137-.9503 2.932-.2193 2.566 2.5583l-.11-.0366Z" fill="#FBB792"/>
  <path d="M77.9441 120.923c4.0313-6.907 9.4919-29.8588 26.2769-29.2741 1.832.9137 3.848 1.4253 5.973 1.3888 1.869 0 3.848-.4386 5.718-1.3888 8.868 0 15.428 3.8375 18.617 12.3531.916 2.412 2.015 6.651 2.822 10.854.586 2.339.879 4.715 1.209 7.164.22 1.937-.366 4.385-.586 4.641-1.136 2.851-3.885 4.166-8.319 3.874-.953-.073-1.723-.219-2.639-.512.293 2.339 0 3.143 0 3.143-14.879 1.937-33.9362-17.725-33.9362-17.725s-11.8007 14.729-11.9107 14.802c0 0-3.6648-8.479-3.1517-9.356l-.0733.036Z" fill="#fff"/>
  <path d="M62.9917 131.485s6.0103-.329 11.3975-.329c5.3873 0 9.1254-1.461 12.3138-6.066.2565-.402.5497-.804.8429-1.243l5.3873-8.223.1099-.146-2.5654 18.31c.4032.621 22.1353 2.046 36.9783.073 0 0-.184-1.499-.477-3.838.916.293 1.686.439 2.639.512 4.434.256 7.183-1.023 8.319-3.874.22-.256 1.173-.402.916-2.339-.293-2.449-.953-7.127-1.539-9.429-.806-4.239-1.906-8.442-2.822-10.854-2.932-7.8946-9.015-11.9514-16.711-12.2803-1.283 1.9005-8.1 12.3163-8.1 12.3163s-7.183-11.5122-7.696-12.3528c-16.528 1.3157-22.3184 20.0648-26.1298 26.6798-.5131.877-12.9002 13.12-12.9002 13.12l.0367-.037Z" fill="#04DBCB"/>
  <path d="m87.5459 123.847 5.3873-8.223.1099-.146.733-5.08s-6.5234 13.887-6.2302 13.449Z" fill="#0FAB9B"/>
  <path d="M139.5 138.5c0-3.5 1.5-18.5-5.5-22 0 0-9.573 9.382-9.5 13 .178 1.94 3.473 18.763 4 18.5 6-4 8-6.5 11-9.5Z" fill="#04DBCB"/>
  <path d="M125.33 134.774c-.11 0-.183-.073-.183-.182l-.367-10.197-2.089-13.011c0-.109.037-.182.147-.219.11 0 .183.037.22.146l2.089 13.011.366 10.197c0 .109-.073.182-.183.182v.073Z" fill="#0FAB9B"/>
  <path d="M86.7396 156.118c-1.0261-13.12-7.9893-24.815-7.9893-24.815-10.8478-1.426-19.0204-1.28-29.7583.146 0 0-4.5366 10.745-6.992 21.051 21.5 13 44.7763 9.977 45.0328 9.941-.0733-2.559-.1466-4.715-.2932-6.286v-.037Z" fill="#1859AD"/>
  <path d="M74.4992 75.8607v1.0598c0 .1828 0 .4021-.0367.5848-.0366.4751-.1099.9868-.1832 1.4984-.0367.2559-.11.5117-.1466.8041 0 .1462-.0733.2923-.11.402-.0366.1827-.0733.3289-.1466.5116-.6596 2.1929-1.869 4.3491-4.2145 5.6283-1.5026.8406-3.8114 1.4253-6.8532.5847l5.937 2.2294.9528 3.472s-5.1307 7.0536-12.0572 1.4619l.3665-9.1733c-1.0994-1.1696-1.4293-2.4122-1.5392-3.07-1.5026.2558-2.6387-.8406-2.9685-2.9603-.4398-2.7776 1.3193-3.5816 2.4921-2.6679.2198.1827.4397.3654.5863.5116.2566.2558.5497.3655.7696.3655.3299 0 .5864-.3289.6231-.9868.1099-2.5948.4031-5.6648 3.5548-6.4323 4.9475-1.1695 4.3245-3.0334 6.7799-3.3623 2.4554-.3289 4.9842 2.1197 5.8271 5.2628.2932 1.0233.4031 1.8273.4031 4.2394l-.0366.0366Z" fill="#FBB792"/>
  <path d="m79.5566 104.55 2.5654 29.603c-.4032.621-21.1094 1.645-35.9518-.292 0 0 1.3559-19.005 1.8324-23.025.4764-4.02-10.7013-2.01-8.9055-6.834 3.1884-8.5156 9.7117-12.3531 18.6172-12.3531 4.0313 2.0101 8.2458 1.7177 11.6908 0 6.4134.2924 10.1515 12.8641 10.1515 12.8641v.037Z" fill="#0382FD"/>
  <path d="M24.2546 73.1196c-.623-2.2293 7.3663-4.9338 8.6856-3.4719-.2565 5.4455-7.2563 8.15-8.6856 3.4719Z" fill="#1859AD"/>
  <path d="M40.563 83.2432s-5.8637-10.3429-7.5862-13.4859c-.623-1.0964-1.2826-2.2294-1.3926-2.5948 0-.0731.2565-4.1664.11-5.2994-.1833-1.206-1.0995-3.6181-1.0995-3.6181-.2932-.8406-.5864-1.0599-.9162-.9502-.4398.1461-.4764.5847-.4031 1.1695.0733.6944.3298 2.0831.3665 2.7775v.731l-3.3717-7.2363c-.4031-.731-.7329-.8406-1.0628-.6944-.2932.1462-.4031.5482-.2565.9502.5131 1.3157 1.1727 3.874 1.2827 4.2394 0 0-.0733.0731-.11 0-.4764-.8405-2.5287-5.0434-2.5287-5.0434-.3665-.5848-.7329-.6944-1.0261-.5117-.2932.1827-.3665.5847-.1466 1.0233.3665.731 2.0523 4.4222 2.1989 5.1531 0 .0731-.0367.1097-.11.0731-.5131-.5482-2.602-4.276-2.602-4.276-.4031-.7309-.733-.8405-1.0628-.6944-.2932.1462-.4398.4752-.1466 1.0965.623 1.4253 2.7853 4.7511 2.602 4.8242 0 0-.0733.0731-.1099 0-.4031-.2924-1.4293-2.1198-1.8691-2.8873-.3298-.5482-.7329-.7674-1.0628-.5847-.2931.1462-.3664.5482-.0733 1.133.5131 1.0598 1.2461 2.6313 1.6859 3.5816.1465.3289.2931.6944.3664 1.0598.8429 3.3624 2.4188 5.1532 3.7015 6.8709.3665.5116 3.5182 11.7316 5.8637 16.7751 1.2094 2.5948 9.9683-.4751 8.8322-3.7644l-.0733.1828Z" fill="#FBB792"/>
  <path d="M28.1393 65.5909c-.0733 0-.1833 0-.1833-.1097 0 0-.5863-2.0466 1.2827-3.3623.0733-.0365.1833 0 .2199.0365.0366.0731 0 .1828-.0366.2193-1.6859 1.1695-1.1728 2.9603-1.1728 2.9969 0 .0731 0 .1827-.1099.1827v.0366ZM27.3697 70.0863c-.6963.1827-1.2461 0-1.2827 0-.0733 0-.1099-.1097-.1099-.2193 0-.0731.1099-.1096.2198-.1096.0367 0 1.0262.3289 2.0157-.4386.0733-.0366.1832-.0366.2199 0 .0366.0731.0366.1827 0 .2193-.3665.2924-.6963.4385-1.0262.5116l-.0366.0366Z" fill="#FF9561"/>
  <path d="M64.8607 98.1544c-5.4239-2.741-15.209-5.2628-17.8843-8.2596-2.3088-2.5949-5.1674-4.678-6.8898-7.7114l-7.1098-12.5357c-.9162 2.5583-8.2824 4.8973-8.6856 3.472 0 0 3.2251 12.828 5.2407 19.9547 2.5654 9.0636 10.628 14.4726 21.9522 22.3666l13.3766-17.2866Z" fill="#0382FD"/>
  <path d="M128.995 100.457c.183.109.513.073.66-.073-.22.329-.184.877.146 1.06.367.182.77 0 1.026-.329.733-.914 1.246-1.6449 1.283-1.6449.11 0-.366.7679-.476 1.1699-.11.329 0 .731.329.877.294.146.66.036.99-.548.366-.622.55-1.0604.77-1.572.366-.9868.146-1.5715-.074-2.1563-.256-.7309-1.905-2.7776-2.602-3.1796-.989-.6213-1.979.3289-1.576 1.3523 0 0-.879 1.3156-1.209 2.1928-.183.4385-.037.8406.257 1.0964.183.1462.476.0731.659 0 0 0-.293.5117-.403.8771-.11.3655-.037.8403.293 1.0233l-.073-.146Z" fill="#FBB792"/>
  <path d="M131.524 97.46c-.037 0-.074.0365-.11.0731-.733 1.2791-1.649 2.4849-1.686 2.4849-.073.073-.037.183 0 .22.073.073.183.036.22 0 0 0 .953-1.2431 1.686-2.5222.036-.0731 0-.1827-.074-.2193h-.146l.11-.0365ZM130.827 95.7057c-.036 0-.073.0365-.11.0731-.586 1.0598-1.576 2.4852-1.612 2.4852-.037.0731-.037.1827 0 .2193.073.0365.183.0365.22 0 0 0 1.026-1.4254 1.612-2.5218.037-.0731 0-.1827-.073-.2193h-.11l.073-.0365ZM128.995 95.7787c.037 0 .073 0 .11-.0731.55-.6944.879-1.5715.879-1.6081 0-.0731 0-.1827-.073-.1827s-.183 0-.183.0731c0 0-.33.8771-.843 1.535-.037.0731-.037.1462 0 .2192h.11v.0366Z" fill="#FF9561"/>
  <path d="M69.8437 72.9691c-.0375.4109.2622.7845.6743.8219.4121.0373.7867-.2615.8242-.6725.0375-.4109-.2623-.7845-.6743-.8219-.4121-.0373-.7868.2615-.8242.6725ZM61.1523 72.6328c-.0375.4109.2622.7845.6743.8219.4121.0373.7868-.2615.8242-.6725.0375-.4109-.2622-.7845-.6743-.8219-.4121-.0374-.7867.2615-.8242.6725Z" fill="#301325"/>
  <path d="M68.008 78.984c-.1124.0374-.2248.0747-.3372.1121l-1.2737.2615s-.075 0-.075-.0374c0-.0373 0-.0747.0375-.0747l1.2737-.2615c.562-.1121 1.0115-.6351.9741-1.1955 0-.1494-.0375-.2989-.1124-.4483l-2.1354-4.3337v-.0747h.0749l2.1354 4.3337c.0749.1494.1124.2988.1124.4856.0375.4857-.2622.9714-.7118 1.1955l.0375.0374Z" fill="#FF9561"/>
  <path d="M66.0599 79.7685c-.1124-.0747-.2247-.2241-.2622-.3736-.0749-.2989.1498-.6351.4495-.6725l1.2738-.2615c.2997-.0747.5619-.3362.5245-.6351 0-.0747 0-.1494-.075-.2241l-2.1353-4.3337c-.075-.1495-.075-.2989 0-.4484.0374-.1494.1498-.2615.2997-.3362.1498-.0747.2997-.0747.4495 0 .1499.0374.2622.1494.3372.2989l2.1354 4.3337c.1123.2241.1498.4483.1873.6725.0374.7098-.3372 1.3823-1.0115 1.7185-.1499.0747-.2997.1121-.487.1494l-1.2738.2615h-.1124c-.1124 0-.2247.0001-.3371-.112l.0374-.0374ZM62.0514 81.0386c.6743 1.7559 2.6598 2.6152 4.4206 1.9427.2622-.1121.3746-.3736.2622-.6351s-.3746-.3736-.6368-.2615c-1.2738.4856-2.6974-.1495-3.1844-1.3823-.1124-.2615-.3746-.3736-.6368-.2615-.2623.112-.3747.3736-.2623.6351l.0375-.0374ZM52.3111 76.4808c-.2248 1.1955.5994 2.3537 1.7982 2.5778.1873 0 .3372-.0747.3746-.2615.0375-.1868-.0749-.3362-.2622-.3736-.8617-.1494-1.4236-.9713-1.2738-1.8306 0-.1868-.0749-.3362-.2622-.3736-.1873-.0373-.3372.0747-.3746.2615Z" fill="#FF9561"/>
  <path d="M59.6912 71.6241c-.1124 0-.2622 0-.3746-.0747-.3372-.1495-.487-.5978-.3372-.934.5245-1.0461 2.2103-2.7273 4.9826-1.6438.3746.1494.5245.5603.4121.8966-.1499.3736-.562.523-.8991.4109-2.2853-.8966-3.1844.8967-3.2218.9714-.1124.2241-.3372.3736-.562.3736ZM72.1664 71.8108h.3746c.3746-.1494.5619-.523.4121-.8966-.4121-1.0834-1.9106-2.9514-4.7953-2.1295-.3746.1121-.5994.4857-.487.8593.1124.3736.487.5977.8617.4857 2.3601-.6725 3.0719 1.1955 3.1094 1.2702.0749.2241.2997.4109.5245.4483v-.0374Z" fill="#25224A"/>
  <path d="M100.563 72.9691c.038.4109-.262.7845-.6742.8219-.4121.0373-.7867-.2615-.8241-.6725-.0375-.4109.2622-.7845.6743-.8219.412-.0373.787.2615.824.6725ZM109.255 72.6328c.037.4109-.263.7845-.675.8219-.412.0373-.787-.2615-.824-.6725-.037-.4109.262-.7845.674-.8219.412-.0374.787.2615.825.6725Z" fill="#301325"/>
  <path d="M103.373 78.2368c.075.0374.15.0747.262.0747l.937.1868h.037v-.0373l-.936-.1868c-.45-.0748-.75-.4857-.712-.8967 0-.112.037-.2241.075-.3362l1.573-3.2129v-.0747c0-.0374-.037 0-.075 0l-1.573 3.2129c-.038.1121-.075.2241-.113.3362 0 .3736.188.7098.525.8966v.0374Z" fill="#FF9561"/>
  <path d="M104.572 78.9092h-.075l-.937-.1868c-.112 0-.225-.0747-.337-.1121-.487-.2615-.787-.7472-.749-1.2702 0-.1868.075-.3362.15-.4857l1.573-3.2129c.038-.1121.15-.1868.262-.2241.113-.0374.225 0 .337 0 .113.0373.188.1494.225.2615.038.1121 0 .2241 0 .3362l-1.573 3.2129c0 .0374-.038.1121-.038.1868 0 .2242.15.411.412.4483l.937.1868c.225.0374.375.2989.337.5231 0 .1121-.075.2241-.187.2615-.075.0373-.15.0747-.262.0747h-.075ZM109.217 79.9178c-.674 1.7559-2.66 2.6151-4.421 1.9427-.262-.1121-.374-.3736-.262-.6352.113-.2615.375-.3736.637-.2615 1.274.4857 2.697-.1494 3.184-1.3823.113-.2615.375-.3736.637-.2615.263.1121.375.3736.263.6351l-.038-.0373ZM118.096 76.4808c.225 1.1955-.6 2.3536-1.798 2.5778-.188 0-.338-.0747-.375-.2615-.038-.1868.075-.3363.262-.3736.862-.1495 1.424-.9714 1.274-1.8306-.15-.8593.075-.3363.262-.3736.187 0 .337.0747.375.2615Z" fill="#FF9561"/>
  <path d="M110.716 72.1845c.112 0 .262 0 .374-.0747.337-.1495.487-.5978.337-.934-.524-1.0461-2.21-2.7273-4.982-1.6438-.375.1494-.525.5604-.412.8966.15.3736.562.523.899.411 2.285-.8967 3.184.8966 3.222.9713.112.2242.337.3736.562.3736ZM101.949 70.989c.113-.0373.225-.1494.3-.2241.225-.3362.15-.7472-.187-.9714-.974-.6724-3.2596-1.2702-5.1327 1.0461-.2248.2989-.1873.7472.1124.9714.2997.2241.7492.1868.974-.1121 1.536-1.9054 3.1843-.8219 3.2593-.7846.225.1495.487.1495.674.0747Z" fill="#25224A"/>
  <path d="M70.1059 50.8895c1.5734.1121 4.1584-.3362 5.6943-.7098 1.5735-.3363.9366-.5604 2.5475-.0748.8991.2616 1.8357.4484 2.7723.5231 3.4465.4109 8.7288.2988 11.6884-.9714 3.4465-1.4944 4.2707-4.782 4.458-8.3685.2248-4.782-.2997-9.8629-4.3457-11.8803-3.5589-1.7186-10.3771-1.6812-14.1234-.8593-.8242.1868-1.6109.4483-2.3977.7846-4.0834 1.8306-4.4955 7.3224-4.1583 11.9176.2622 3.6986.974 2.5031 0 5.2677-.2997.8219-.562 1.4944-.8991 2.279-.6744 1.5691-1.1239 1.6438-1.2363 2.0547v.0374Z" fill="#0084FF"/>
  <path d="M88.1255 43.7165v.1494c-.2997 1.0461-1.0864 1.868-2.1354 2.2416-.7867.2615-1.6483.2615-2.4725 0-1.049-.3363-1.8357-1.1582-2.1354-2.2416v-.1494c0-.1121.1499-.1868.3372-.0748.9365.5231 1.9855.7472 3.0345.7472 1.0489 0 2.0979-.2241 3.0344-.7472.1874-.112.3372 0 .3372.0748ZM88.6874 35.1612c2.585-.6352 3.4466 3.3249.8617 3.8853-2.5475.5604-3.4466-3.2502-.8617-3.8853ZM79.8462 35.1985c2.4725-.5604 3.484 3.0635 1.049 3.8107-1.049.3362-2.1729-.2615-2.4726-1.3076v-.0374c-.2997-1.046.2623-2.1295 1.3112-2.4283h.1499l-.0375-.0374Z" fill="#fff"/>
</svg>
