<svg width="163" height="163" fill="none" xmlns="http://www.w3.org/2000/svg">
  <circle cx="81.5" cy="81.5" r="81.5" fill="#F4F7FB"/>
  <path d="M135.088 39.9131H29.5459v69.1909H135.088V39.9131Z" fill="#429CFF"/>
  <path d="M144.886 109.145H19.7473c-.4127 0-.7473.337-.7473.752v5.432c0 .415.3346.752.7473.752H144.886c.413 0 .747-.337.747-.752v-5.432c0-.415-.334-.752-.747-.752Z" fill="#0382FD"/>
  <path d="M144.845 115.037H19.7473c-.1834 0-.3321.149-.3321.334v.376c0 .185.1487.334.3321.334H144.845c.183 0 .332-.149.332-.334v-.376c0-.185-.149-.334-.332-.334ZM74.0129 112.78c-1.038 0-1.8269-.835-1.8269-1.838v-1.797h20.3029v1.797c0 1.045-.8304 1.838-1.8268 1.838H74.0129Z" fill="#085FB4"/>
  <path d="M90.8697 111.402H73.7222c-.7473 0-1.3701-.627-1.3701-1.379v-.878h19.8462v.878c0 .752-.6228 1.379-1.3702 1.379h.0416ZM129.607 45.4282H35.0264V103.63h94.5806V45.4282Z" fill="#fff"/>
  <path d="M129.607 45.4282H35.0264V103.63h94.5806V45.4282Z" stroke="#E3E3E3" stroke-width=".9" stroke-miterlimit="10"/>
  <path d="M83.1471 42.5452c0 .4596-.3737.8357-.8304.8357-.4567 0-.8304-.3761-.8304-.8357s.3737-.8356.8304-.8356c.4567 0 .8304.376.8304.8356Z" fill="#fff" stroke="#E3E3E3" stroke-width=".9" stroke-miterlimit="10"/>
  <path d="M121.635 56.8765H86.7177c-1.3758 0-2.4911 1.1223-2.4911 2.5069v34.5117c0 1.3845 1.1153 2.5069 2.4911 2.5069h34.9173c1.376 0 2.491-1.1224 2.491-2.5069V59.3834c0-1.3846-1.115-2.5069-2.491-2.5069Z" fill="#F6EBE1"/>
  <path d="M109.802 76.681c-.788 0-1.453-.6685-1.453-1.4624v-1.1281c0-.7938.665-1.4623 1.453-1.4623.789 0 1.454.6685 1.454 1.4623v1.1281c0 .7939-.665 1.4624-1.454 1.4624ZM98.5507 76.4721c-.7889 0-1.4532-.6685-1.4532-1.4623v-1.1281c0-.7939.6643-1.4624 1.4532-1.4624s1.4533.6685 1.4533 1.4624v1.1281c0 .7938-.6644 1.4623-1.4533 1.4623Z" fill="#E9B295"/>
  <path d="M104.488 65.5253h-1.329c-2.499 0-4.5253 2.039-4.5253 4.5542v7.1447c0 2.5152 2.0263 4.5542 4.5253 4.5542h1.329c2.499 0 4.526-2.039 4.526-4.5542v-7.1447c0-2.5152-2.027-4.5542-4.526-4.5542ZM107.27 82.2379l.207 1.7966s1.993 1.3371 3.322 1.7966c1.328.4596-3.778 5.1392-6.851 4.0111-3.114-1.1281-4.1933-3.8021-4.1933-3.8021l3.3213-1.3371v-1.5459l4.194-.8774v-.0418Z" fill="#E9B295"/>
  <path d="M103.076 84.2435c3.82 1.1699 4.36-.7103 4.318-1.2953l-4.318.6268v.6685Z" fill="#FF9561"/>
  <path d="M109.055 76.0125c-.872 1.546-1.993 2.2145-1.993 2.2145s-.872-1.7967-3.529-2.0056c-2.657-.2089-3.529 1.546-3.529 1.546s-1.1212-2.6741-1.3288-2.0056c-.2075.6685-1.121 5.3481 1.1211 6.894 2.2007 1.5459 5.9787 2.0055 8.1797.2089 1.328-1.5459 1.536-3.1336 1.121-6.894l-.042.0418Zm-7.764 2.4651s1.536-1.5459 3.114 0c-.208 1.546-3.114 1.3371-3.114 0Z" fill="#25224A"/>
  <path d="M119.31 96.4438c-.623-2.5905-1.577-5.2645-2.906-7.3536-.415-.6685-.997-1.2117-1.702-1.5459-3.197-1.7131-4.111-1.922-4.111-1.922s-5.314 4.8885-10.8363.4596c0 0-4.8577.8774-5.9787 6.0166-.2491 1.1281-.3322 2.6322-.2906 4.3871H119.31v-.0418Z" fill="#0382FD"/>
  <path d="m112.335 96.4437-.415-1.5041.166 1.5041h.249Z" fill="#705524" style="mix-blend-mode:multiply" opacity=".5"/>
  <path d="M104.446 69.9124c1.08-.2507 2.159-.0836 3.031.585.706.5849-.249.8774-.789.5013-.498-.3342-1.121-.5431-1.702-.376-.83.2507-1.744-.376-.54-.7103ZM101.54 69.5363c-1.079-.2507-2.1589-.0836-3.0308.585-.7059.5849.2491.8774.7888.5013.4982-.3342 1.121-.5431 1.702-.376.831.2507 1.744-.376.54-.7103Z" fill="#26214D"/>
  <path d="M99.9623 74.1323c.2757 0 .4987-.2245.4987-.5014 0-.2769-.223-.5014-.4987-.5014-.2751 0-.4982.2245-.4982.5014 0 .2769.2231.5014.4982.5014ZM105.277 74.1323c.275 0 .498-.2245.498-.5014 0-.2769-.223-.5014-.498-.5014s-.498.2245-.498.5014c0 .2769.223.5014.498.5014Z" fill="#341026"/>
  <path d="M102.495 76.2214h.166l.623-.0836-.623.0836c-.291 0-.54-.1254-.623-.3761v-.2089l.291-2.3398-.291 2.3398v.2507c.042.2507.249.4178.499.4178l-.042-.0835Z" fill="#FF9561"/>
  <path d="m103.325 76.3885-.622.0836h-.25c-.373-.0418-.622-.2925-.747-.6267v-.3343l.291-2.3398c0-.0835.041-.1253.124-.2089.083-.0835.125-.0835.208-.0418.083 0 .124.0418.208.1254.041.0418.083.1253.041.2089l-.291 2.3398v.1253c0 .1254.208.2089.333.2089l.622-.0835c.166 0 .291.0835.333.2506 0 .0836 0 .1672-.042.209-.042.0417-.125.0835-.166.1253l-.042-.0418ZM103.118 79.0625h-.291c-.457 0-.913-.1671-1.245-.5013-.083-.0418-.083-.1672 0-.2089.041-.0836.166-.0836.207 0 .291.2506.623.4178.997.4178.373 0 .747-.1672.996-.4596.042-.0836.166-.0836.208 0 .083.0418.083.1671 0 .2089-.249.2507-.582.4596-.955.5014l.083.0417ZM98.26 75.9707c.0416 0 .1246 0 .1246-.0835 0-.0418 0-.1254-.0415-.1672-.2907-.1671-.5398-.4178-.6228-.752-.1246-.3343-.083-.6686.083-.961 0-.0418 0-.1254-.0415-.1672-.0415 0-.1245 0-.1661.0418-.166.3761-.2076.7939-.083 1.1699.1246.3761.4152.7103.7473.8774v.0418Z" fill="#FF9561"/>
  <path d="M106.979 75.344h-3.28c-.415 0-.706-.3343-.706-.7103v-1.8802c0-.4178.332-.7103.706-.7103h3.28c.415 0 .706.3343.706.7103v1.8802c0 .4178-.332.7103-.706.7103Zm-3.28-2.7158c-.041 0-.083.0417-.083.0835v1.8802c0 .0418.042.0836.083.0836h3.28c.042 0 .083-.0418.083-.0836v-1.8802c0-.0418-.041-.0835-.083-.0835h-3.28ZM101.291 75.2186h-2.9064c-.4152 0-.7058-.3342-.7058-.7103v-1.8802c0-.4178.3321-.7103.7058-.7103h2.9064c.415 0 .706.3343.706.7103v1.8802c0 .4178-.332.7103-.706.7103Zm-2.9064-2.7158c-.0415 0-.083.0418-.083.0836v1.8801c0 .0418.0415.0836.083.0836h2.9064c.041 0 .083-.0418.083-.0836v-1.8801c0-.0418-.042-.0836-.083-.0836h-2.9064Z" fill="#25224A"/>
  <path d="M103.076 73.5473h-1.121c-.124 0-.207-.0835-.207-.2089 0-.1253.083-.2089.207-.2089h1.121c.125 0 .208.0836.208.2089 0 .1254-.083.2089-.208.2089ZM109.429 73.1295l-1.495.4178c-.166.0418-.374-.0417-.415-.2507-.042-.1671.041-.376.249-.4178l1.495-.4178c.166-.0418.373.0418.415.2507.041.1671-.042.376-.249.4178Z" fill="#25224A"/>
  <path d="M109.802 76.0543c-.041 0-.124 0-.124-.0835 0-.0418 0-.1254.041-.1672.291-.1671.54-.4178.623-.752.125-.3343.083-.6685-.083-.961 0-.0418 0-.1254.042-.1671.041 0 .124 0 .166.0417.166.3761.207.7939.083 1.1699-.125.3761-.415.7103-.748.8775v.0417Z" fill="#FF9561"/>
  <path d="M78.1648 56.8765H43.2472c-1.3758 0-2.4912 1.1223-2.4912 2.5069v34.5117c0 1.3845 1.1154 2.5069 2.4912 2.5069h34.9176c1.3758 0 2.4911-1.1224 2.4911-2.5069V59.3834c0-1.3846-1.1153-2.5069-2.4911-2.5069Z" fill="#F6EBE1"/>
  <path d="M69.3212 96.402c-.9134-5.1809-1.7853-8.3981-1.7853-8.3981l-2.3251-1.4624-9.4248.1671s-.9134 4.596-1.8269 9.6934h15.4036-.0415Z" fill="#994623" style="mix-blend-mode:multiply" opacity=".4"/>
  <path d="M70.1101 96.4019c-.9965-5.8494-1.9929-9.5262-1.9929-9.5262l-2.3251-1.4624-9.4249.1672s-1.0795 5.3062-2.0344 10.8214h15.7773Z" fill="#fff"/>
  <path d="M64.2144 79.0625h-5.5221v7.3536h5.5221v-7.3536Z" fill="#F9B079"/>
  <path d="M64.1728 81.068c-.3321 2.5905-5.3975 2.9248-5.439.3761v-.8357c0-.8774.7059-1.5459 1.5362-1.5459h2.4497c.8719 0 1.5362.7103 1.5362 1.5459 0 .7521.6643.2925-.0415.4596h-.0416Z" fill="#F0907A"/>
  <path d="m58.8169 78.3105-7.4735-.2925s-1.5362-12.7852 9.757-14.2894c8.2208.2925 9.9231 11.1976 9.9646 14.2476-4.7332.1254-12.2481.3343-12.2481.3343Z" fill="#fff"/>
  <path d="M66.3734 75.511c.6649 0 1.204-.7295 1.204-1.6294 0-.9-.5391-1.6295-1.204-1.6295-.665 0-1.2041.7295-1.2041 1.6295 0 .8999.5391 1.6294 1.2041 1.6294ZM57.1146 73.8816c0 .8774-.5398 1.6294-1.2041 1.6294s-1.204-.7102-1.204-1.6294c0-.9192.5397-1.6295 1.204-1.6295s1.2041.7103 1.2041 1.6295Z" fill="#F9B079"/>
  <path d="M61.2665 81.8619h-.2491c-2.6572 0-4.8578-1.4205-4.8578-4.0946v-6.6015c0-2.674 2.2006-4.8885 4.8578-4.8885h.2491c2.6572 0 4.8577 2.2145 4.8577 4.8885v6.6015c0 2.6741-1.8683 4.22-4.8577 4.0946Z" fill="#F9B079"/>
  <path d="M55.0801 71.3747s5.4806 2.5487 12.0406 0c.083-2.5069-.5813-6.2255-6.1033-6.6015-5.5221-.376-6.7261 4.8467-5.9373 6.6015Z" fill="#fff"/>
  <path d="M58.4847 83.2408s-1.7438 2.4233-1.4116 4.1364c.3321 1.713 2.9894 2.8829 4.7747 2.6322 1.7853-.2507 3.8197-.7103 4.7747-3.0083.083-1.9637-.7058-3.9692-2.4496-3.8439-2.2006.1671-5.6882.0836-5.6882.0836Z" fill="#F9B079"/>
  <path d="M65.8751 87.1264c.4152 1.337.7059 2.7158.8719 4.0946.1661 1.4206.1661 2.7994.0831 4.22 0 .2925-.0416.6267-.0831.9192h.2491c.1246-1.337.1661-2.674.0831-4.0528-.0831-1.4206-.2907-2.883-.6643-4.2618-.3737-1.3788-.8719-2.7158-1.5362-3.9693-.1661-.2924-.3322-.6267-.5398-.9192-.083-.1253-.3321 0-.2076.1254.7474 1.1699 1.3286 2.4651 1.7438 3.8021v.0418ZM57.6959 96.3602h.2906c-.3737-1.2117-.7058-2.4234-.9134-3.635-.2491-1.4206-.2907-2.9248-.1661-4.3453.1661-1.3788.4982-2.7994 1.121-4.0529.1661-.2925.3322-.6267.4982-.9192.0831-.1253-.1245-.2924-.2075-.1253-.7474 1.2116-1.2456 2.5904-1.4947 4.0528-.2492 1.4206-.2907 2.9247-.1246 4.3453.1661 1.5877.5398 3.1336 1.038 4.6378l-.0415.0418Z" fill="#FAD00F"/>
  <path d="M56.2842 96.402c.2076-4.9303.2906-7.5208.2906-7.5208s1.2456-5.0555 2.2836-5.6823c-.1661-.5014-8.9266 2.883-11.3347 7.8968-.7474 1.5041-1.3286 3.3843-1.7854 5.3063h10.5459ZM66.4564 86.3326c-.0415 1.7548-.5813 4.596-.5813 4.596s.3737 2.0055.9135 5.4734h8.3453l-1.204-9.3591s-3.8198-3.2172-9.757-4.4289v.7939s2.325 1.1699 2.2835 2.8829v.0418Z" fill="#0382FD"/>
  <path d="M78.58 96.402c-1.4532-4.2199-3.2385-8.5235-4.6501-9.3591-1.7439-1.0028-1.4947 4.5542-1.038 9.3591H78.58Z" fill="#0382FD"/>
  <path d="M62.6782 72.3775c1.121-.3761 2.325-.2925 3.28.376.8304.5432-.1661.961-.7889.6267-.5397-.3342-1.2456-.4596-1.8684-.2507-.8719.3343-1.9098-.2506-.6227-.7102v-.0418ZM60.187 72.3775c-1.121-.4179-2.2835-.3761-3.28.2089-.8719.5013.1246 1.0027.7473.6267.5813-.2925 1.2456-.4178 1.8684-.1671.8719.376 1.9099-.1672.6643-.7103v.0418Z" fill="#fff"/>
  <path d="M58.5678 75.135c.2522 0 .4567-.2058.4567-.4596s-.2045-.4596-.4567-.4596c-.2523 0-.4567.2058-.4567.4596s.2044.4596.4567.4596ZM64.0483 75.135c.2522 0 .4567-.2058.4567-.4596s-.2045-.4596-.4567-.4596-.4567.2058-.4567.4596.2045.4596.4567.4596Z" fill="#341026"/>
  <path d="M61.5571 77.5167h-.7058.5398c.2491 0 .4567-.2089.4982-.4596v-.2089l-.5813-2.0055.5813 2.0055v.2089c0 .2089-.1661.376-.3737.4596h.0415Z" fill="#9F735E"/>
  <path d="M60.8513 77.8091c-.083 0-.1245 0-.1661-.0835-.0415-.0418-.083-.1254-.083-.1672 0-.1253.1246-.2507.2491-.2507h.5398c.1245 0 .2491-.1253.2906-.2507v-.1253l-.5813-2.0055v-.2089c0-.0418.0831-.0836.1661-.1254h.2076c.083 0 .083.0836.1246.1671l.5812 2.0056v.2924c0 .2925-.2491.5432-.5397.6686h-.7474l-.0415.0835ZM61.5571 79.5222h-.2906c-.4982 0-.9965-.1671-1.3286-.5432-.083-.0835-.083-.1671 0-.2506.083-.0836.1661-.0836.2491 0 .2906.2924.6643.4178 1.0795.4178.4152 0 .7889-.1672 1.0795-.4596.083-.0836.1661-.0836.2491 0 .0831.0835.0831.1671 0 .2507-.2906.2924-.6228.5013-.9964.5431l-.0416.0418ZM55.8275 75.135c.0415 0 .083 0 .1246-.0417v-.1672c-.2492-.1671-.4567-.4178-.4983-.752-.083-.2925 0-.6268.1661-.8775v-.1671h-.1661c-.2076.2925-.2906.6685-.2076 1.0446.0831.376.2907.6685.5813.8774v.0835ZM66.5394 75.135c-.0415 0-.083 0-.1245-.0417v-.1672c.2491-.1671.4567-.4178.4982-.752.0831-.2925 0-.6268-.1661-.8775v-.1671h.1661c.2076.2925.2907.6685.2076 1.0446-.083.376-.2906.6685-.5813.8774v.0835Z" fill="#9F735E"/>
  <path d="M66.8716 76.4303c.3898 0 .7058-.318.7058-.7102 0-.3923-.316-.7103-.7058-.7103s-.7058.318-.7058.7103c0 .3922.316.7102.7058.7102ZM55.3708 76.3467c.3898 0 .7058-.318.7058-.7103 0-.3922-.316-.7103-.7058-.7103s-.7059.3181-.7059.7103c0 .3923.3161.7103.7059.7103Z" fill="#FAD00F"/>
  <path d="M72.0615 64.1883c.3736 0 .9964-.0836 1.3286-.1672.3736-.0835.2076-.1253.5812 0 .2076.0418.4152.0836.6644.1254.8303.0836 2.0759.0836 2.7402-.2507.8304-.3343.9965-1.1281 1.038-2.0055.0415-1.1281-.083-2.3398-1.038-2.8412-.8304-.4178-2.4496-.376-3.3215-.2089-.2076.0418-.3737.1254-.5813.2089-.9549.4596-1.0795 1.7549-.9964 2.8412.083.8774.2491.5849 0 1.2534-.0831.2089-.1246.3761-.2076.5432-.1661.376-.2492.376-.2907.5014h.0831Zm4.2349-1.7131c-.083.2507-.2491.4596-.4982.5432-.2076.0418-.3737.0418-.5813 0-.2491-.0836-.4152-.2925-.4982-.5432 0 0 0-.0418.083 0 .2076.1254.4567.1671.7059.1671.2491 0 .4982-.0417.7058-.1671h.083Zm.1246-2.0473c.6228-.1671.8304.7939.2076.9192-.5813.1254-.7889-.7938-.2076-.9192Zm-2.076 0c.5813-.1253.8304.7103.2491.9192-.2491.0836-.4982-.0418-.5812-.2925-.0831-.2506.083-.5013.2906-.5849l.0415-.0418ZM106.605 48.6873H58.111c-1.2611 0-2.2835 1.0288-2.2835 2.298 0 1.2691 1.0224 2.298 2.2835 2.298h48.494c1.262 0 2.284-1.0289 2.284-2.298 0-1.2692-1.022-2.298-2.284-2.298Z" fill="#0382FD"/>
  <path d="M58.6093 52.4476c.8255 0 1.4947-.6734 1.4947-1.5041s-.6692-1.5042-1.4947-1.5042c-.8255 0-1.4947.6735-1.4947 1.5042s.6692 1.5041 1.4947 1.5041Z" fill="#fff"/>
  <path d="M58.6093 51.5284c.321 0 .5812-.2619.5812-.5849 0-.3231-.2602-.585-.5812-.585-.3211 0-.5813.2619-.5813.585 0 .323.2602.5849.5813.5849Z" fill="#00BEAB"/>
  <path d="M106.813 51.3195h-3.695c-.166 0-.332-.1671-.332-.3342 0-.1672.166-.3343.332-.3343h3.695c.166 0 .332.1671.332.3343 0 .1671-.166.3342-.332.3342ZM106.813 49.5229h-3.695c-.184 0-.332.1497-.332.3343s.148.3343.332.3343h3.695c.183 0 .332-.1497.332-.3343s-.149-.3343-.332-.3343ZM106.813 52.3641h-3.695c-.166 0-.332-.1672-.332-.3343s.166-.3342.332-.3342h3.695c.166 0 .332.1671.332.3342s-.166.3343-.332.3343Z" fill="#fff"/>
</svg>
